# xmcd
#
# Track frame offsets: 
#        150
#        15600
#        31050
#        55275
#        69075
#        86625
#        98513
#        114755
#        132225
#        154800
#
# Disc length: 2253 seconds
#
# Revision: 5
# Processed by: cddbd v1.5.2PL0 Copyright (c) Steve Scherf et al.
# Submitted via: ExactAudioCopy v0.99pb5
#
DISCID=6c08cb0a
DTITLE=Marcia Ball - Soulful Dress
DYEAR=1989
DGENRE=Blues
TTITLE0=Soulful Dress
TTITLE1=Made Your Move Too Soon
TTITLE2=I'd Rather Go Blind
TTITLE3=Jailbird
TTITLE4=Eugene
TTITLE5=My Mind's Made Up
TTITLE6=A Thousand Times
TTITLE7=That's Why I Love You
TTITLE8=Soul On Fire
TTITLE9=Don't Want No Man
EXTD=
EXTT0=
EXTT1=
EXTT2=
EXTT3=
EXTT4=
EXTT5=
EXTT6=
EXTT7=
EXTT8=
EXTT9=
PLAYORDER=
